<?xml version="1.0" encoding="UTF-8"?>
<svg width="18px" height="21px" viewBox="0 0 18 21" version="1.1" xmlns="http://www.w3.org/2000/svg" xmlns:xlink="http://www.w3.org/1999/xlink">
    <!-- Generator: Sketch 52.3 (67297) - http://www.bohemiancoding.com/sketch -->
    <title>i-android</title>
    <desc>Created with Sketch.</desc>
    <g id="Page-1" stroke="none" stroke-width="1" fill="none" fill-rule="evenodd">
        <g id="Online-Trading_light" transform="translate(-1368.000000, -3321.000000)" fill="#F40830" fill-rule="nonzero">
            <g id="03" transform="translate(0.000000, 2527.000000)">
                <g id="Group-15" transform="translate(1083.000000, 694.000000)">
                    <g id="Group-12" transform="translate(264.000000, 80.000000)">
                        <path d="M32.8165619,21.7584718 L33.0474069,21.4150902 L33.2740317,21.0763206 L33.784254,20.3161853 C33.8467129,20.2226882 33.8213917,20.0969074 33.7281253,20.0344363 C33.6331708,19.9719651 33.5065648,19.9971213 33.4436838,20.0910376 L32.8971678,20.9060972 L32.6671668,21.2486403 L32.4337897,21.5957953 C31.6944106,21.3111114 30.8702054,21.1513698 29.999578,21.1513698 C29.1297946,21.1513698 28.3055894,21.3111114 27.5662103,21.5957953 L27.3340992,21.2486403 L27.1040983,20.9060972 L26.5567383,20.0906184 C26.4942793,19.9971213 26.3672512,19.9719651 26.2727187,20.034017 C26.1790303,20.0960689 26.1537091,20.2222689 26.2161681,20.315766 L26.7259683,21.0759013 L26.9534371,21.414671 L27.1842821,21.7580526 C25.4476695,22.5613726 24.2731877,24.0833204 24.2731877,25.8253845 L35.7276564,25.8253845 C35.7276564,24.0837396 34.5531745,22.5617919 32.8165619,21.7584718 Z M27.5459533,24.1998772 C27.2062271,24.1998772 26.9319141,23.9269329 26.9319141,23.5902596 C26.9319141,23.2535863 27.2062271,22.9810612 27.5459533,22.9810612 C27.8848354,22.9810612 28.1591485,23.2535863 28.1591485,23.5902596 C28.1591485,23.9269329 27.8848354,24.1998772 27.5459533,24.1998772 Z M32.4544687,24.1998772 C32.1155866,24.1998772 31.8412736,23.9269329 31.8412736,23.5902596 C31.8412736,23.2535863 32.1155866,22.9810612 32.4544687,22.9810612 C32.7941949,22.9810612 33.0685079,23.2535863 33.0685079,23.5902596 C33.0685079,23.9269329 32.7941949,24.1998772 32.4544687,24.1998772 Z M24.3613899,26.638767 L35.6394542,26.638767 L35.7276564,26.638767 L35.7276564,27.6525603 L35.7276564,28.4797787 L35.7276564,35.5805244 C35.7276564,36.2903474 35.1465347,36.8676813 34.4320548,36.8676813 L33.4972803,36.8676813 C33.5285098,36.9750143 33.5458126,37.0890555 33.5458126,37.2060317 L33.5458126,37.2739533 L33.5458126,37.6802253 L33.5458126,39.7807647 C33.5458126,40.453692 32.9959205,41 32.3185783,41 C31.641236,41 31.0913439,40.453692 31.0913439,39.7807647 L31.0913439,37.6802253 L31.0913439,37.2739533 L31.0913439,37.2060317 C31.0913439,37.0886363 31.1086467,36.9750143 31.1398762,36.8676813 L28.8609678,36.8676813 C28.8913533,36.9750143 28.9095001,37.0890555 28.9095001,37.2060317 L28.9095001,37.2739533 L28.9095001,37.6802253 L28.9095001,39.7807647 C28.9095001,40.453692 28.36003,41 27.6822658,41 C27.0045015,41 26.4546094,40.453692 26.4546094,39.7807647 L26.4546094,37.6802253 L26.4546094,37.2739533 L26.4546094,37.2060317 C26.4546094,37.0886363 26.4723342,36.9750143 26.5035637,36.8676813 L25.5683673,36.8676813 C24.8538873,36.8676813 24.2731877,36.2903474 24.2731877,35.5805244 L24.2731877,28.4797787 L24.2731877,27.6525603 L24.2731877,26.638767 L24.3613899,26.638767 Z M22.2272344,26.638767 C22.9049986,26.638767 23.4544687,27.1842365 23.4544687,27.8580023 L23.4544687,33.073713 C23.4544687,33.7466403 22.9045766,34.2929482 22.2272344,34.2929482 C21.5494701,34.2929482 21,33.7466403 21,33.073713 L21,27.8584216 C21,27.1842365 21.5494701,26.638767 22.2272344,26.638767 Z M37.7736097,26.638767 C38.4509519,26.638767 39,27.1842365 39,27.8580023 L39,33.073713 C39,33.7466403 38.4509519,34.2929482 37.7736097,34.2929482 C37.0954234,34.2929482 36.5463753,33.7466403 36.5463753,33.073713 L36.5463753,27.8584216 C36.5463753,27.1842365 37.0954234,26.638767 37.7736097,26.638767 Z" id="i-android"></path>
                    </g>
                </g>
            </g>
        </g>
    </g>
</svg>