<?xml version="1.0" encoding="UTF-8"?>
<svg width="18px" height="22px" viewBox="0 0 18 22" version="1.1" xmlns="http://www.w3.org/2000/svg" xmlns:xlink="http://www.w3.org/1999/xlink">
    <!-- Generator: Sketch 52.3 (67297) - http://www.bohemiancoding.com/sketch -->
    <title>i-apple</title>
    <desc>Created with Sketch.</desc>
    <g id="Page-1" stroke="none" stroke-width="1" fill="none" fill-rule="evenodd">
        <g id="Online-Trading_light" transform="translate(-1104.000000, -3320.000000)" fill="#F40830" fill-rule="nonzero">
            <g id="03" transform="translate(0.000000, 2527.000000)">
                <g id="Group-15" transform="translate(1083.000000, 694.000000)">
                    <g id="Group-12" transform="translate(0.000000, 80.000000)">
                        <path d="M34.2910717,19 C31.8873904,19.8270659 30.0141732,20.6541345 30.2812495,24.2380921 C32.6849318,23.6867122 34.8252242,22.3082664 34.2910717,19 Z M26.6571425,23.9761875 C24.342857,23.9761875 21,26.0714139 21,29.9999804 C21,35.5000033 24.5999998,41 26.6571425,41 C28.1999996,41 29.4857138,39.9523816 30.5142852,39.9523816 C31.5428565,39.9523816 32.5714289,41 34.114286,41 C36.1714287,41 38.4857143,37.8571447 39,34.9761941 C37.2000001,33.666671 35.9142859,32.8809572 35.9142859,30.5237896 C35.9142859,28.9523646 37.2000001,27.3809369 38.7428572,26.0714139 C37.9714286,25.0238059 36.4285716,23.9761875 34.8857145,23.9761875 C33.3428575,23.9761875 31.6837513,25.2194775 30.5142852,25.2857105 C29.4857138,25.2857105 28.1999996,23.9761875 26.6571425,23.9761875 Z" id="i-apple"></path>
                    </g>
                </g>
            </g>
        </g>
    </g>
</svg>