<?xml version="1.0" encoding="UTF-8"?>
<svg width="18px" height="18px" viewBox="0 0 18 18" version="1.1" xmlns="http://www.w3.org/2000/svg" xmlns:xlink="http://www.w3.org/1999/xlink">
    <!-- Generator: Sketch 52.3 (67297) - http://www.bohemiancoding.com/sketch -->
    <title>i-cfds</title>
    <desc>Created with Sketch.</desc>
    <g id="Page-1" stroke="none" stroke-width="1" fill="none" fill-rule="evenodd">
        <g id="Online-Trading_light" transform="translate(-1477.000000, -3650.000000)" fill="#FFFFFF" fill-rule="nonzero">
            <g id="Group-30" transform="translate(60.000000, 3526.000000)">
                <g id="Group-27" transform="translate(918.000000, 83.000000)">
                    <g id="Group-21" transform="translate(40.000000, 30.000000)">
                        <g id="Group-24">
                            <g id="Group-20">
                                <g id="03" transform="translate(448.000000, 0.000000)">
                                    <g id="Icon">
                                        <path d="M27.515915,20.0005184 C27.5163862,19.712819 27.7556295,19.4727334 28.0436715,19.4727334 C28.3309972,19.4727334 28.5718803,19.7128002 28.5714279,20.0005184 C28.5710698,20.2119151 28.5636058,20.4233495 28.5468307,20.6341053 C28.4761302,21.5229894 28.2838384,22.401544 27.9398731,23.225567 C27.5893485,24.0654237 27.130502,24.8351603 26.5445792,25.5331182 C25.4313524,26.859272 23.8956188,27.8371821 22.2215752,28.2814639 C20.4862177,28.741994 18.5884244,28.6588302 16.9150594,27.9970444 C16.0676521,27.6619198 15.2913789,27.2125487 14.582602,26.6393365 C13.9131429,26.0979234 13.3316118,25.4496904 12.8541242,24.7334297 C11.8686898,23.2551607 11.3633441,21.4578079 11.4353263,19.6821509 C11.4715342,18.78912 11.6369858,17.8941664 11.9502281,17.0560816 C12.2697281,16.2012397 12.7094812,15.4183838 13.2697512,14.6989376 C14.3335763,13.3328228 15.8318015,12.3112008 17.4862615,11.8037733 C19.2027706,11.2773267 21.1067086,11.3011901 22.8023712,11.8986615 C24.482352,12.49061 25.9348509,13.5792041 26.9766233,15.0235818 C28.0150407,16.4633226 28.568563,18.2275757 28.5714279,20.0005184 C28.5718803,20.2882365 28.3309972,20.5283033 28.0436715,20.5283033 C27.7556295,20.5283033 27.5163674,20.2882177 27.515915,20.0005184 C27.5153307,19.6411345 27.4917701,19.282467 27.4448187,18.9261744 C27.4511141,18.9729399 27.4573906,19.0197055 27.4636671,19.066471 C27.447514,18.9469654 27.4292687,18.8277048 27.4077438,18.7090286 C27.3320107,18.2913999 27.2249704,17.879313 27.0839086,17.4789127 C27.0476631,17.3760324 27.0097966,17.2736986 26.9693666,17.1723828 C26.9507255,17.1257492 26.9319148,17.0792099 26.9124255,17.0329345 C26.9878193,17.2120044 26.9143292,17.0388721 26.8960273,16.9979876 C26.8110962,16.8080604 26.7196059,16.6209983 26.6201615,16.438234 C26.4224979,16.0750048 26.1982956,15.7260447 25.9471778,15.3973855 C25.8928377,15.3262665 26.0368021,15.5113682 25.9540009,15.4063767 C25.938696,15.3869618 25.9233722,15.3675468 25.9078788,15.3482638 C25.8768919,15.3097167 25.8457543,15.2713015 25.8140512,15.2333386 C25.7507393,15.1574319 25.686353,15.0823733 25.6202892,15.0088416 C25.4827144,14.8557085 25.3399563,14.7071748 25.1910912,14.5649556 C25.0421697,14.4227364 24.8884794,14.2854558 24.7291535,14.1549798 C24.6845016,14.1184118 24.6396234,14.0821266 24.5942175,14.0465388 C24.5646066,14.0233163 24.4864798,13.9641478 24.6228672,14.0683854 C24.6032082,14.0533623 24.5835493,14.0383393 24.5637396,14.0235048 C24.4844819,13.9640913 24.4044137,13.9057711 24.3230261,13.8493169 C23.9825855,13.6131332 23.6248231,13.4015856 23.251982,13.2206685 C23.154479,13.1733564 23.0562221,13.1275522 22.9568719,13.0842361 C22.9338957,13.0742082 22.9109383,13.0641991 22.8878678,13.0543974 C23.0481361,13.1225005 22.9566835,13.0832936 22.9213992,13.0688172 C22.8749189,13.0497416 22.8283444,13.030911 22.7815249,13.0127212 C22.5854633,12.9366071 22.3867065,12.8672976 22.1852354,12.806904 C21.7758661,12.6841751 21.3578264,12.5940182 20.9343018,12.5367912 C20.9810648,12.5430681 21.0278278,12.5493638 21.0745908,12.5556406 C20.3617615,12.4616572 19.6388105,12.4616572 18.9259812,12.5556406 C18.9727441,12.5493638 19.0195071,12.5430681 19.0662701,12.5367912 C18.946771,12.5529452 18.8275169,12.5711915 18.7088471,12.5927175 C18.2912409,12.6684358 17.8791762,12.7754819 17.4787975,12.9165513 C17.3759227,12.9527988 17.2735945,12.9906674 17.1722841,13.0311183 C17.1256531,13.0497227 17.0791163,13.0685534 17.0328433,13.0880437 C17.2119036,13.012627 17.0387806,13.0861588 16.9978983,13.1044427 C16.8079814,13.1893784 16.6209294,13.2808548 16.4381749,13.3803235 C16.0749653,13.5780166 15.7260241,13.8022121 15.3973826,14.0533435 C15.3262674,14.1076865 15.5113591,13.9637143 15.4063733,14.04652 C15.3869594,14.0618257 15.3675455,14.0771504 15.3482635,14.0926446 C15.3097185,14.1236143 15.2713053,14.1547724 15.2333446,14.1864584 C15.1574419,14.2497926 15.0823874,14.3141823 15.0088596,14.3802497 C14.8557348,14.5178319 14.7072091,14.6605978 14.5649976,14.8094708 C14.422786,14.9583815 14.2855128,15.1120801 14.1550439,15.2714334 C14.1184779,15.3160689 14.0821946,15.3609495 14.0466088,15.4063579 C14.0233875,15.4359704 13.9642222,15.5141202 14.0684541,15.3777067 C14.0534319,15.3973667 14.0384097,15.4170267 14.023576,15.4368374 C13.9641657,15.5160994 13.9058486,15.5961719 13.8493975,15.6775639 C13.6132265,16.0180417 13.4016904,16.3758045 13.220783,16.7486846 C13.1734734,16.8461929 13.1276717,16.9444551 13.0843579,17.0438106 C13.0743306,17.0667881 13.064322,17.0897468 13.0545209,17.1128185 C13.1226203,16.9525415 13.0834155,17.0439803 13.0689399,17.0792665 C13.0498653,17.1257492 13.0310357,17.1723262 13.0128469,17.2191483 C12.9367369,17.4152204 12.8674312,17.613988 12.8070408,17.8154699 C12.6843185,18.2248613 12.5941664,18.6429236 12.5369425,19.066471 C12.5432191,19.0197055 12.5495145,18.9729399 12.555791,18.9261744 C12.4618126,19.6390422 12.4618126,20.3620322 12.555791,21.0749 C12.5495145,21.0281345 12.5432191,20.9813689 12.5369425,20.9346034 C12.5530957,21.0541279 12.571341,21.1733696 12.5928659,21.2920646 C12.6685801,21.7096933 12.7756204,22.1217802 12.9166822,22.5221805 C12.9529277,22.6250609 12.9907943,22.7273946 13.031243,22.8287105 C13.0498464,22.8753252 13.068676,22.9218833 13.0881653,22.9681588 C13.0127527,22.7890889 13.0862805,22.9622023 13.1045635,23.0031057 C13.1894946,23.1930329 13.2809661,23.3800949 13.3804293,23.5628593 C13.5781118,23.9260884 13.8022952,24.2750485 14.0534131,24.6037077 C14.1077531,24.6748079 13.9637887,24.489725 14.0465899,24.5947165 C14.0618949,24.6141315 14.0772186,24.6335653 14.0927121,24.6528294 C14.1236801,24.6913766 14.1548365,24.7297918 14.1865208,24.7677546 C14.2498515,24.8436614 14.3142378,24.9187199 14.3803016,24.9922517 C14.5178764,25.1453847 14.6606346,25.2939373 14.8094996,25.4361377 C14.9584023,25.5783946 15.1120925,25.7156563 15.2714373,25.8461323 C15.3160704,25.8827003 15.3609485,25.9189855 15.4063544,25.9545733 C15.4359654,25.9778147 15.514111,26.0369643 15.3777048,25.9327456 C15.3973637,25.9477686 15.4170227,25.9627916 15.4368324,25.9776262 C15.5160901,26.0370397 15.5961583,26.0953599 15.6775459,26.151814 C16.0180053,26.3879978 16.3757488,26.5995265 16.7486088,26.7804624 C16.8461118,26.8277557 16.9443687,26.8735599 17.0437189,26.9168948 C17.0666951,26.9269039 17.0896525,26.936913 17.112723,26.9467147 C16.9524547,26.8786116 17.0438885,26.9178185 17.0791728,26.9322949 C17.1256531,26.9513705 17.1722276,26.9702011 17.2190471,26.9883909 C17.4151086,27.064505 17.6138655,27.1338145 17.8153365,27.1942081 C18.2247059,27.3169181 18.6427456,27.4070939 19.0662701,27.4643021 C19.0195071,27.4580252 18.9727441,27.4517483 18.9259812,27.4454526 C19.6388105,27.539436 20.3617615,27.539436 21.0745908,27.4454526 C21.0278278,27.4517483 20.9810648,27.4580252 20.9343018,27.4643021 C21.0538198,27.4481481 21.1730551,27.4299018 21.2917249,27.4083757 C21.7093311,27.3326386 22.1214146,27.2255925 22.5217744,27.0845231 C22.6246492,27.0482756 22.7269775,27.010407 22.8283067,26.9699749 C22.8749189,26.9513517 22.9214746,26.932521 22.9677286,26.9130307 C22.7886684,26.9884286 22.9617914,26.9149345 23.0026737,26.8966317 C23.1925906,26.811696 23.3796426,26.7202007 23.5623971,26.6207509 C23.9256255,26.4230766 24.2745479,26.1988623 24.6031894,25.9477498 C24.6743046,25.8934068 24.4892128,26.0373601 24.5941987,25.9545544 C24.6136126,25.9392487 24.6330453,25.923924 24.6523084,25.9084298 C24.6908723,25.8774601 24.7292666,25.846302 24.7672462,25.814616 C24.8431489,25.7512818 24.9182034,25.6869109 24.9917312,25.6208247 C25.144856,25.4832613 25.2933817,25.3404766 25.4355933,25.1916036 C25.5778236,25.0426929 25.7150969,24.8889755 25.8455658,24.729641 C25.8821318,24.6850055 25.9183962,24.6401249 25.9540009,24.5947165 C25.9772222,24.5650852 26.0363875,24.4869542 25.9321556,24.6233677 C25.9471778,24.6037077 25.9622188,24.5840477 25.9770525,24.564237 C26.0364628,24.4849561 26.0947799,24.4048836 26.151231,24.3235105 C26.387402,23.9830515 26.5989193,23.6252699 26.7798455,23.2523898 C26.8271363,23.1548815 26.872938,23.0566193 26.9162517,22.9572638 C26.9262602,22.9342863 26.9362876,22.9113276 26.9460888,22.8882559 C26.8779894,23.0485329 26.9171941,22.9570753 26.9316698,22.9217891 C26.9507255,22.8753063 26.969574,22.8287293 26.9877627,22.7819072 C27.0638727,22.5858351 27.1331785,22.3870676 27.1935689,22.1855857 C27.3162723,21.7761942 27.4064432,21.358132 27.4636483,20.9345846 C27.4573717,20.9813501 27.4510952,21.0281156 27.4447998,21.0748811 C27.4917701,20.7185698 27.5153307,20.3599022 27.515915,20.0005184 Z M19.9955739,26.6654053 C16.3201271,26.6654053 13.3310652,23.681347 13.3310652,20.0005184 C13.3310652,16.3195766 16.3201271,13.3356502 19.9955739,13.3356502 L19.9955739,26.6654053 Z" id="i-cfds"></path>
                                    </g>
                                </g>
                            </g>
                        </g>
                    </g>
                </g>
            </g>
        </g>
    </g>
</svg>