<?xml version="1.0" encoding="UTF-8"?>
<svg width="15px" height="16px" viewBox="0 0 15 16" version="1.1" xmlns="http://www.w3.org/2000/svg" xmlns:xlink="http://www.w3.org/1999/xlink">
    <!-- Generator: Sketch 52.3 (67297) - http://www.bohemiancoding.com/sketch -->
    <title>i-commodities</title>
    <desc>Created with Sketch.</desc>
    <g id="Page-1" stroke="none" stroke-width="1" fill="none" fill-rule="evenodd">
        <g id="Online-Trading_light" transform="translate(-1296.000000, -3651.000000)" fill="#FFFFFF" fill-rule="nonzero">
            <g id="Group-30" transform="translate(60.000000, 3526.000000)">
                <g id="Group-27" transform="translate(918.000000, 83.000000)">
                    <g id="Group-21" transform="translate(40.000000, 30.000000)">
                        <g id="Group-24">
                            <g id="Group-20">
                                <g id="03" transform="translate(264.000000, 0.000000)">
                                    <g id="Icon">
                                        <path d="M14.1428571,16.1074286 L14.1428571,24.1428571 C14.1428571,26.464 17.7182857,27.6788571 21.2502857,27.6788571 C24.7822857,27.6788571 28.3571429,26.464 28.3571429,24.1428571 L28.3571429,16.1074286 C28.3571429,13.7862857 24.7817143,12.5714286 21.2497143,12.5714286 C17.7177143,12.5714286 14.1428571,13.7857143 14.1428571,16.1074286 Z M21.2497143,25.9645714 C17.7605714,25.9645714 15.8565714,24.7617143 15.8565714,24.1428571 L15.8565714,22.6308571 C17.2274286,23.3937143 19.2445714,23.7857143 21.2497143,23.7857143 C23.2548571,23.7857143 25.2714286,23.3931429 26.6428571,22.6308571 L26.6428571,24.1428571 C26.6428571,24.7611429 24.7394286,25.9645714 21.2497143,25.9645714 Z M21.2497143,22.0714286 C17.7605714,22.0714286 15.8565714,20.8685714 15.8565714,20.2497143 L15.8565714,18.4874286 C17.2274286,19.2502857 19.2445714,19.6422857 21.2497143,19.6422857 C23.2548571,19.6422857 25.2714286,19.2497143 26.6428571,18.4874286 L26.6428571,20.2497143 C26.6428571,20.8685714 24.7394286,22.0714286 21.2497143,22.0714286 Z M26.6428571,16.1074286 C26.6428571,16.7257143 24.7394286,17.9291429 21.2497143,17.9291429 C17.76,17.9291429 15.8565714,16.7262857 15.8565714,16.1074286 C15.8565714,15.4885714 17.76,14.2857143 21.2497143,14.2857143 C24.7394286,14.2857143 26.6428571,15.4885714 26.6428571,16.1074286 Z" id="i-commodities"></path>
                                    </g>
                                </g>
                            </g>
                        </g>
                    </g>
                </g>
            </g>
        </g>
    </g>
</svg>