<?xml version="1.0" encoding="UTF-8"?>
<svg width="24px" height="24px" viewBox="0 0 24 24" version="1.1" xmlns="http://www.w3.org/2000/svg" xmlns:xlink="http://www.w3.org/1999/xlink">
    <!-- Generator: Sketch 52.3 (67297) - http://www.bohemiancoding.com/sketch -->
    <title>i-forex</title>
    <desc>Created with Sketch.</desc>
    <g id="Page-1" stroke="none" stroke-width="1" fill="none" fill-rule="evenodd">
        <g id="Online-Trading_light" transform="translate(-1026.000000, -3647.000000)" fill="#FFFFFF" fill-rule="nonzero">
            <g id="Group-30" transform="translate(60.000000, 3526.000000)">
                <g id="Group-27" transform="translate(918.000000, 83.000000)">
                    <g id="Group-21" transform="translate(40.000000, 30.000000)">
                        <g id="Group-24">
                            <g id="Group-20">
                                <g id="03">
                                    <g id="Icon">
                                        <g id="i-forex" transform="translate(8.571429, 8.571429)">
                                            <path d="M19.4342857,3.58399295 C17.3885714,1.51186596 14.5537143,0.227633157 11.4308571,0.22821164 C8.30828571,0.227633157 5.47314286,1.51186596 3.42771429,3.58399295 C1.38085714,5.65467372 0.112285714,8.52481834 0.112857143,11.68594 C0.112571429,14.847351 1.38085714,17.7172063 3.428,19.7878871 C5.47342857,21.8600141 8.30857143,23.1442469 11.4311429,23.1439577 C14.554,23.1445362 17.3891429,21.8603034 19.4345714,19.7878871 C21.4814286,17.7172063 22.75,14.847351 22.7497143,11.68594 C22.7497143,8.52481834 21.4811429,5.65467372 19.4342857,3.58399295 Z M18.2217143,18.5606349 C16.4811429,20.3215379 14.0854286,21.4079295 11.4305714,21.4085079 C8.77571429,21.4079295 6.38028571,20.3215379 4.63971429,18.5609242 C2.90057143,16.798575 1.82714286,14.373284 1.82685714,11.68594 C1.82714286,8.99830688 2.90057143,6.57330511 4.63971429,4.81095591 C6.38028571,3.05034215 8.776,1.96366138 11.4305714,1.96337213 C14.0854286,1.96366138 16.4811429,3.05034215 18.2217143,4.81095591 C19.9611429,6.57301587 21.0342857,8.99830688 21.0348571,11.68594 C21.0342857,14.373284 19.9611429,16.798575 18.2217143,18.5606349 Z" id="Shape"></path>
                                            <path d="M13.9865714,11.5126843 C13.7122857,11.3157108 13.3797143,11.1485291 12.9888571,11.0108501 C12.5982857,10.8731711 12.1614286,10.7467725 11.6791429,10.6328113 C11.294,10.5344691 11.0182857,10.4595556 10.8511429,10.4083598 C10.684,10.357164 10.5185714,10.2862998 10.3551429,10.1957672 C10.1917143,10.1052346 10.0634286,9.99676896 9.97,9.87094885 C9.87657143,9.74512875 9.83,9.59530159 9.83,9.42204586 C9.83,9.14234921 9.96714286,8.90343563 10.2414286,8.70443739 C10.5154286,8.50543915 10.8762857,8.40622928 11.3237143,8.40622928 C11.806,8.40622928 12.1565714,8.49762963 12.3734286,8.68071958 C12.5917143,8.86380952 12.778,9.11892063 12.934,9.44576367 C13.0545714,9.67426455 13.1662857,9.83855379 13.2694286,9.93892063 C13.3722857,10.0392875 13.5237143,10.0896155 13.7217143,10.0896155 C13.9394286,10.0896155 14.1211429,10.0060247 14.2671429,9.83855379 C14.4128571,9.67108289 14.486,9.48307584 14.486,9.27453263 C14.486,9.04603175 14.4277143,8.81174603 14.3111429,8.57167549 C14.1945714,8.3313157 14.0094286,8.10194709 13.7571429,7.88356966 C13.5042857,7.664903 13.1862857,7.48991182 12.8031429,7.35801764 C12.6425714,7.30248325 12.4662857,7.26170018 12.2808571,7.22930511 L12.2808571,5.61186596 C12.2808571,5.15370723 11.914,4.78232099 11.4614286,4.78232099 C11.0088571,4.78232099 10.642,5.15341799 10.642,5.61186596 L10.642,7.21918166 C10.31,7.26806349 10.0022857,7.34529101 9.72542857,7.45838448 C9.23914286,7.65738272 8.86771429,7.94170723 8.61114286,8.31193651 C8.35457143,8.68187654 8.226,9.10532628 8.226,9.58170723 C8.226,10.081806 8.34742857,10.5000494 8.59057143,10.8367266 C8.83371429,11.1734039 9.16228571,11.4392169 9.57657143,11.6341658 C9.99085714,11.8291146 10.5051429,11.999478 11.1197143,12.1449665 C11.5785714,12.2516966 11.9451429,12.3520635 12.2191429,12.4463563 C12.4937143,12.540649 12.7174286,12.6780388 12.8905714,12.8565009 C13.0634286,13.0355414 13.15,13.2695379 13.15,13.5564656 C13.15,13.9191746 12.9894286,14.2214321 12.6682857,14.4632381 C12.3474286,14.7056226 11.9305714,14.8265256 11.4171429,14.8265256 C11.0437143,14.8265256 10.7422857,14.7666526 10.5128571,14.6469065 C10.2834286,14.526582 10.1054286,14.3741517 9.97914286,14.1887478 C9.85285714,14.0039224 9.73514286,13.7733968 9.62628571,13.4977496 C9.53685714,13.2649101 9.42885714,13.0904974 9.30257143,12.9724868 C9.17628571,12.8544762 9.02114286,12.7946032 8.83828571,12.7946032 C8.61257143,12.7946032 8.42714286,12.870963 8.28114286,13.0216578 C8.13542857,13.1735097 8.06228571,13.3554427 8.06228571,13.5686138 C8.06228571,13.9347937 8.18371429,14.3113862 8.42685714,14.6995485 C8.67,15.0871323 8.986,15.3971993 9.37485714,15.6294603 C9.732,15.8403175 10.1588571,15.9745256 10.6414286,16.0479929 L10.6414286,17.6636966 C10.6414286,18.1218554 11.0082857,18.4929524 11.4605714,18.4929524 C11.9131429,18.4929524 12.28,18.1218554 12.28,17.6636966 L12.28,16.0491499 C12.6477143,15.9921693 12.9871429,15.8987443 13.2894286,15.7593298 C13.8028571,15.5238871 14.1928571,15.1967549 14.4594286,14.7790899 C14.726,14.361425 14.8585714,13.8911182 14.8585714,13.3673016 C14.8591429,12.9305467 14.7822857,12.5611852 14.6285714,12.2600847 C14.4745714,11.9586949 14.2608571,11.7096578 13.9865714,11.5126843 Z" id="Shape"></path>
                                        </g>
                                    </g>
                                </g>
                            </g>
                        </g>
                    </g>
                </g>
            </g>
        </g>
    </g>
</svg>