<?xml version="1.0" encoding="UTF-8"?>
<svg width="18px" height="16px" viewBox="0 0 18 16" version="1.1" xmlns="http://www.w3.org/2000/svg" xmlns:xlink="http://www.w3.org/1999/xlink">
    <!-- Generator: Sketch 52.3 (67297) - http://www.bohemiancoding.com/sketch -->
    <title>i-indices</title>
    <desc>Created with Sketch.</desc>
    <g id="Page-1" stroke="none" stroke-width="1" fill="none" fill-rule="evenodd">
        <g id="Online-Trading_light" transform="translate(-1155.000000, -3651.000000)" fill="#FFFFFF" fill-rule="nonzero">
            <g id="Group-30" transform="translate(60.000000, 3526.000000)">
                <g id="Group-27" transform="translate(918.000000, 83.000000)">
                    <g id="Group-21" transform="translate(40.000000, 30.000000)">
                        <g id="Group-24">
                            <g id="Group-20">
                                <g id="Group-2" transform="translate(126.000000, 0.000000)">
                                    <g id="03">
                                        <g id="Icon">
                                            <path d="M19.4811484,15.4975369 L28.5714286,12.5714286 L28.5714286,14.4744221 L20.7471463,16.9298977 L18.0076098,22.2910193 L16.8868903,24.5009473 L11.4285714,28 L11.4285714,25.5240621 L15.5171221,23.2936718 L16.9283985,20.5107995 L19.4811484,15.4975369 Z M22.8848149,24.7874195 L28.5714286,24.7669572 L28.5714286,26.3630163 L21.9093739,26.3630163 L18.7755102,22.5774915 L19.6471809,20.8791209 L22.8848149,24.7874195 Z M14.3133864,17.6460781 L11.4285714,17.6460781 L11.4285714,16.0090944 L15.3925977,15.9886321 L17.0736769,17.9734748 L16.2020062,19.6923077 L14.3133864,17.6460781 Z" id="i-indices"></path>
                                        </g>
                                    </g>
                                </g>
                            </g>
                        </g>
                    </g>
                </g>
            </g>
        </g>
    </g>
</svg>