<?xml version="1.0" encoding="UTF-8"?>
<svg width="24px" height="21px" viewBox="0 0 24 21" version="1.1" xmlns="http://www.w3.org/2000/svg" xmlns:xlink="http://www.w3.org/1999/xlink">
    <!-- Generator: Sketch 52.3 (67297) - http://www.bohemiancoding.com/sketch -->
    <title>i-macos</title>
    <desc>Created with Sketch.</desc>
    <g id="Page-1" stroke="none" stroke-width="1" fill="none" fill-rule="evenodd">
        <g id="Online-Trading_light" transform="translate(-1365.000000, -3241.000000)" fill="#FFFFFF" fill-rule="nonzero">
            <g id="03" transform="translate(0.000000, 2527.000000)">
                <g id="Group-15" transform="translate(1083.000000, 694.000000)">
                    <g id="Group-12" transform="translate(264.000000, 0.000000)">
                        <path d="M32.247,22.788 L32.247,22.446 L31.184,22.519 C30.883,22.538 30.657,22.602 30.505,22.71 C30.353,22.819 30.277,22.97 30.277,23.163 C30.277,23.351 30.352,23.501 30.503,23.612 C30.653,23.724 30.855,23.779 31.107,23.779 C31.268,23.779 31.419,23.754 31.558,23.705 C31.697,23.656 31.819,23.587 31.921,23.499 C32.023,23.412 32.103,23.308 32.16,23.187 C32.218,23.066 32.247,22.933 32.247,22.788 Z M34.184,21.319 C34.282,21.044 34.42,20.808 34.599,20.612 C34.778,20.416 34.993,20.265 35.245,20.159 C35.497,20.053 35.778,20 36.087,20 C36.366,20 36.618,20.042 36.842,20.125 C37.067,20.208 37.259,20.32 37.42,20.461 C37.581,20.602 37.709,20.766 37.803,20.954 C37.897,21.142 37.953,21.341 37.972,21.55 L37.139,21.55 C37.118,21.435 37.08,21.327 37.026,21.228 C36.972,21.129 36.901,21.043 36.813,20.97 C36.724,20.897 36.62,20.84 36.501,20.799 C36.381,20.757 36.247,20.737 36.096,20.737 C35.919,20.737 35.758,20.773 35.615,20.844 C35.471,20.915 35.348,21.016 35.246,21.146 C35.144,21.276 35.065,21.435 35.009,21.621 C34.952,21.808 34.924,22.015 34.924,22.243 C34.924,22.479 34.952,22.691 35.009,22.877 C35.065,23.064 35.145,23.221 35.249,23.35 C35.352,23.479 35.477,23.578 35.622,23.646 C35.767,23.714 35.927,23.749 36.101,23.749 C36.386,23.749 36.618,23.682 36.798,23.548 C36.978,23.414 37.094,23.218 37.148,22.96 L37.982,22.96 C37.958,23.188 37.895,23.396 37.793,23.584 C37.691,23.772 37.559,23.932 37.397,24.065 C37.234,24.198 37.043,24.301 36.823,24.373 C36.603,24.445 36.361,24.482 36.098,24.482 C35.786,24.482 35.505,24.43 35.252,24.327 C35,24.224 34.783,24.075 34.603,23.882 C34.423,23.689 34.284,23.454 34.186,23.177 C34.088,22.9 34.039,22.589 34.039,22.242 C34.037,21.903 34.086,21.595 34.184,21.319 Z M22.331,20.057 L23.165,20.057 L23.165,20.798 L23.181,20.798 C23.232,20.675 23.299,20.564 23.381,20.468 C23.463,20.371 23.557,20.289 23.665,20.22 C23.772,20.151 23.891,20.099 24.019,20.063 C24.148,20.027 24.284,20.009 24.426,20.009 C24.732,20.009 24.991,20.082 25.201,20.228 C25.412,20.374 25.562,20.584 25.65,20.858 L25.671,20.858 C25.727,20.726 25.801,20.608 25.892,20.504 C25.983,20.4 26.088,20.31 26.206,20.236 C26.324,20.162 26.454,20.106 26.595,20.067 C26.736,20.028 26.884,20.009 27.04,20.009 C27.255,20.009 27.45,20.043 27.626,20.112 C27.802,20.181 27.952,20.277 28.077,20.402 C28.202,20.527 28.298,20.679 28.365,20.857 C28.432,21.035 28.466,21.233 28.466,21.451 L28.466,24.432 L27.596,24.432 L27.596,21.66 C27.596,21.373 27.522,21.15 27.374,20.993 C27.227,20.836 27.016,20.757 26.742,20.757 C26.608,20.757 26.485,20.781 26.373,20.828 C26.262,20.875 26.165,20.941 26.085,21.026 C26.004,21.11 25.941,21.212 25.896,21.33 C25.85,21.448 25.827,21.577 25.827,21.717 L25.827,24.432 L24.969,24.432 L24.969,21.588 C24.969,21.462 24.949,21.348 24.91,21.246 C24.871,21.144 24.816,21.057 24.743,20.984 C24.671,20.911 24.582,20.856 24.479,20.817 C24.375,20.778 24.259,20.758 24.13,20.758 C23.996,20.758 23.872,20.783 23.757,20.833 C23.643,20.883 23.545,20.952 23.463,21.04 C23.381,21.129 23.317,21.233 23.272,21.354 C23.228,21.474 23.156,21.606 23.156,21.748 L23.156,24.431 L22.331,24.431 L22.331,20.057 Z M24.224,40.996 C20.399,40.996 18,38.338 18,34.096 C18,29.854 20.399,27.187 24.224,27.187 C28.049,27.187 30.439,29.854 30.439,34.096 C30.439,38.337 28.049,40.996 24.224,40.996 Z M31.306,24.421 C31.165,24.457 31.021,24.475 30.873,24.475 C30.655,24.475 30.456,24.444 30.275,24.382 C30.093,24.32 29.938,24.233 29.808,24.12 C29.678,24.007 29.576,23.871 29.504,23.711 C29.431,23.551 29.395,23.373 29.395,23.177 C29.395,22.793 29.538,22.493 29.824,22.277 C30.11,22.061 30.524,21.935 31.067,21.9 L32.247,21.832 L32.247,21.494 C32.247,21.242 32.167,21.049 32.007,20.918 C31.847,20.787 31.621,20.721 31.328,20.721 C31.21,20.721 31.099,20.736 30.997,20.765 C30.895,20.795 30.805,20.837 30.727,20.892 C30.649,20.947 30.584,21.013 30.534,21.09 C30.483,21.166 30.448,21.252 30.429,21.346 L29.611,21.346 C29.616,21.153 29.664,20.974 29.754,20.81 C29.844,20.646 29.966,20.504 30.121,20.383 C30.276,20.262 30.457,20.168 30.667,20.101 C30.877,20.034 31.105,20 31.352,20 C31.618,20 31.859,20.033 32.075,20.101 C32.291,20.169 32.476,20.264 32.629,20.389 C32.782,20.514 32.9,20.664 32.983,20.84 C33.066,21.016 33.108,21.213 33.108,21.43 L33.108,24.431 L32.275,24.431 L32.275,23.702 L32.254,23.702 C32.192,23.82 32.114,23.927 32.019,24.022 C31.923,24.117 31.816,24.199 31.697,24.266 C31.577,24.333 31.447,24.385 31.306,24.421 Z M36.809,40.996 C33.892,40.996 31.909,39.468 31.771,37.069 L33.67,37.069 C33.818,38.44 35.143,39.348 36.958,39.348 C38.699,39.348 39.95,38.44 39.95,37.199 C39.95,36.125 39.19,35.476 37.431,35.032 L35.717,34.606 C33.253,33.995 32.133,32.874 32.133,31.031 C32.133,28.762 34.115,27.187 36.94,27.187 C39.7,27.187 41.626,28.771 41.7,31.049 L39.82,31.049 C39.69,29.678 38.57,28.835 36.902,28.835 C35.244,28.835 34.096,29.687 34.096,30.919 C34.096,31.891 34.818,32.466 36.578,32.91 L38.023,33.271 C40.774,33.938 41.904,35.022 41.904,36.967 C41.903,39.449 39.94,40.996 36.809,40.996 Z M24.224,28.89 C21.603,28.89 19.964,30.9 19.964,34.095 C19.964,37.281 21.603,39.291 24.224,39.291 C26.836,39.291 28.484,37.281 28.484,34.095 C28.485,30.9 26.836,28.89 24.224,28.89 Z" id="i-macos"></path>
                    </g>
                </g>
            </g>
        </g>
    </g>
</svg>