<?xml version="1.0" encoding="UTF-8"?>
<svg width="22px" height="22px" viewBox="0 0 22 22" version="1.1" xmlns="http://www.w3.org/2000/svg" xmlns:xlink="http://www.w3.org/1999/xlink">
    <!-- Generator: Sketch 52.3 (67297) - http://www.bohemiancoding.com/sketch -->
    <title>i-web</title>
    <desc>Created with Sketch.</desc>
    <g id="Page-1" stroke="none" stroke-width="1" fill="none" fill-rule="evenodd">
        <g id="Online-Trading_light" transform="translate(-1102.000000, -3400.000000)" fill="#F40830" fill-rule="nonzero">
            <g id="03" transform="translate(0.000000, 2527.000000)">
                <g id="Group-15" transform="translate(1083.000000, 694.000000)">
                    <g id="Group-12" transform="translate(0.000000, 160.000000)">
                        <path d="M39.5804725,35.4017271 C41.4731758,32.0497078 41.4731758,27.9502922 39.5804725,24.5982729 C39.5526239,24.5304574 39.5156115,24.4667863 39.4704707,24.4090405 C37.4913983,21.0567209 33.8903687,19 30,19 C26.1096313,19 22.5086017,21.0567209 20.5295293,24.4090405 C20.4843885,24.4667863 20.4473761,24.5304574 20.4195275,24.5982729 C18.5268242,27.9502922 18.5268242,32.0497078 20.4195275,35.4017271 C20.4473761,35.4695426 20.4843885,35.5332137 20.5295293,35.5909595 C22.5086017,38.9432791 26.1096313,41 30,41 C33.8903687,41 37.4913983,38.9432791 39.4704707,35.5909595 C39.5156115,35.5332137 39.5526239,35.4695426 39.5804725,35.4017271 Z M38.5217049,34.4727676 L35.0428967,34.4727676 C35.652479,31.522132 35.652479,28.477868 35.0428967,25.5272324 L38.5217049,25.5272324 C39.9929192,28.3272863 39.9929192,31.6727137 38.5217049,34.4727676 Z M30,39.6336534 C28.8312305,39.6336534 27.5937098,38.2092489 26.768696,35.8490038 L33.231304,35.8490038 C32.4062902,38.2092489 31.1687695,39.6336534 30,39.6336534 Z M26.3699394,34.4727676 C26.0332246,33.0059281 25.8671185,31.5050362 25.8749311,30 C25.8671185,28.4949638 26.0332246,26.9940719 26.3699394,25.5272324 L33.6300606,25.5272324 C33.9667754,26.9940719 34.1328815,28.4949638 34.1250689,30 C34.1328815,31.5050362 33.9667754,33.0059281 33.6300606,34.4727676 L26.3699394,34.4727676 Z M30,20.3663466 C31.1687695,20.3663466 32.4062902,21.7907511 33.231304,24.1509962 L26.768696,24.1509962 C27.5937098,21.7907511 28.8312305,20.3663466 30,20.3663466 Z M37.6416902,24.1509962 L34.6819532,24.1509962 C34.3466842,22.9867428 33.8217021,21.8858651 33.1281773,20.892757 C34.91964,21.5117982 36.4893932,22.6449801 37.6416902,24.1509962 Z M26.8718227,20.892757 C26.1782979,21.8858651 25.6533158,22.9867428 25.3180468,24.1509962 L22.3583098,24.1509962 C23.5106068,22.6449801 25.08036,21.5117982 26.8718227,20.892757 Z M21.4782951,25.5272324 L24.9571033,25.5272324 C24.347521,28.477868 24.347521,31.522132 24.9571033,34.4727676 L21.4782951,34.4727676 C20.0070808,31.6727137 20.0070808,28.3272863 21.4782951,25.5272324 Z M22.3583098,35.8490038 L25.3180468,35.8490038 C25.6533158,37.0132572 26.1782979,38.1141349 26.8718227,39.107243 C25.08036,38.4882018 23.5106068,37.3550199 22.3583098,35.8490038 Z M33.1281773,39.107243 C33.8217021,38.1141349 34.3466842,37.0132572 34.6819532,35.8490038 L37.6416902,35.8490038 C36.4893932,37.3550199 34.91964,38.4882018 33.1281773,39.107243 Z" id="i-web"></path>
                    </g>
                </g>
            </g>
        </g>
    </g>
</svg>