<?xml version="1.0" encoding="utf-8"?><svg xmlns="http://www.w3.org/2000/svg" xmlns:xlink="http://www.w3.org/1999/xlink"><symbol viewBox="0 0 18 21" id="i-android" xmlns="http://www.w3.org/2000/svg"><path d="M11.817 1.758l.23-.343.227-.339.51-.76a.203.203 0 0 0-.056-.282.206.206 0 0 0-.284.057l-.547.815-.23.343-.233.347A6.775 6.775 0 0 0 9 1.15c-.87 0-1.694.16-2.434.445l-.232-.347-.23-.343L5.557.09a.206.206 0 0 0-.284-.057.203.203 0 0 0-.057.282l.51.76.227.339.231.343c-1.736.803-2.91 2.325-2.91 4.067h11.454c0-1.741-1.175-3.263-2.911-4.067zM6.546 4.2a.611.611 0 0 1-.614-.61c0-.336.274-.609.614-.609a.61.61 0 0 1 .613.61.61.61 0 0 1-.613.609zm4.908 0a.611.611 0 0 1-.613-.61.61.61 0 0 1 .613-.609c.34 0 .615.273.615.61a.612.612 0 0 1-.615.609zM3.361 6.639h11.367v8.941c0 .71-.581 1.288-1.296 1.288h-.935c.032.107.049.221.049.338v2.574c0 .674-.55 1.22-1.227 1.22a1.224 1.224 0 0 1-1.228-1.22v-2.573c0-.117.018-.231.049-.338H7.86c.03.107.049.221.049.338v2.573c0 .674-.55 1.22-1.228 1.22a1.224 1.224 0 0 1-1.227-1.22v-2.573c0-.117.017-.231.049-.338h-.936a1.292 1.292 0 0 1-1.295-1.287V6.639h.088zm-2.134 0c.678 0 1.227.545 1.227 1.219v5.216c0 .673-.55 1.219-1.227 1.219A1.224 1.224 0 0 1 0 13.073V7.859c0-.674.55-1.22 1.227-1.22zm15.547 0c.677 0 1.226.545 1.226 1.219v5.216c0 .673-.549 1.219-1.226 1.219a1.223 1.223 0 0 1-1.228-1.22V7.859c0-.674.55-1.22 1.228-1.22z" fill="#F40830"/></symbol><symbol viewBox="0 0 18 22" id="i-apple" xmlns="http://www.w3.org/2000/svg"><path d="M13.291 0c-2.404.827-4.277 1.654-4.01 5.238 2.404-.551 4.544-1.93 4.01-5.238zM5.657 4.976C3.343 4.976 0 7.071 0 11c0 5.5 3.6 11 5.657 11 1.543 0 2.829-1.048 3.857-1.048 1.029 0 2.057 1.048 3.6 1.048 2.057 0 4.372-3.143 4.886-6.024-1.8-1.31-3.086-2.095-3.086-4.452 0-1.572 1.286-3.143 2.829-4.453-.772-1.047-2.314-2.095-3.857-2.095-1.543 0-3.202 1.243-4.372 1.31-1.028 0-2.314-1.31-3.857-1.31z" fill="#F40830"/></symbol><symbol viewBox="0 0 12 18" id="i-arrow" xmlns="http://www.w3.org/2000/svg"><path d="M8.818 6.697L9 6.515l2.121 2.121-.182.182.182.182L9 11.121l-.182-.182-6.182 6.182L.515 15l6.182-6.182L.515 2.636 2.636.515l6.182 6.182z" fill="#13131A" fill-rule="evenodd" opacity=".2"/></symbol><symbol viewBox="0 0 24 21" id="i-macos" xmlns="http://www.w3.org/2000/svg"><path d="M14.247 2.788v-.342l-1.063.073c-.301.019-.527.083-.679.191a.527.527 0 0 0-.228.453c0 .188.075.338.226.449.15.112.352.167.604.167.161 0 .312-.025.451-.074.139-.049.261-.118.363-.206a.924.924 0 0 0 .326-.711zm1.937-1.469c.098-.275.236-.511.415-.707.179-.196.394-.347.646-.453.252-.106.533-.159.842-.159.279 0 .531.042.755.125.225.083.417.195.578.336.161.141.289.305.383.493.094.188.15.387.169.596h-.833a1.072 1.072 0 0 0-.113-.322.88.88 0 0 0-.213-.258 1 1 0 0 0-.312-.171 1.217 1.217 0 0 0-.405-.062c-.177 0-.338.036-.481.107a1.062 1.062 0 0 0-.369.302 1.43 1.43 0 0 0-.237.475 2.126 2.126 0 0 0-.085.622c0 .236.028.448.085.634.056.187.136.344.24.473.103.129.228.228.373.296.145.068.305.103.479.103.285 0 .517-.067.697-.201.18-.134.296-.33.35-.588h.834a1.659 1.659 0 0 1-.189.624 1.607 1.607 0 0 1-.396.481 1.767 1.767 0 0 1-.574.308c-.22.072-.462.109-.725.109-.312 0-.593-.052-.846-.155a1.817 1.817 0 0 1-.649-.445 1.993 1.993 0 0 1-.417-.705 2.788 2.788 0 0 1-.147-.935 2.697 2.697 0 0 1 .145-.923zM4.331.057h.834v.741h.016A1.233 1.233 0 0 1 5.665.22a1.3 1.3 0 0 1 .354-.157 1.51 1.51 0 0 1 .407-.054c.306 0 .565.073.775.219.211.146.361.356.449.63h.021c.056-.132.13-.25.221-.354a1.416 1.416 0 0 1 .703-.437A1.66 1.66 0 0 1 9.04.009c.215 0 .41.034.586.103.176.069.326.165.451.29.125.125.221.277.288.455.067.178.101.376.101.594v2.981h-.87V1.66c0-.287-.074-.51-.222-.667-.147-.157-.358-.236-.632-.236a.944.944 0 0 0-.369.071.842.842 0 0 0-.288.198.889.889 0 0 0-.189.304 1.057 1.057 0 0 0-.069.387v2.715h-.858V1.588c0-.126-.02-.24-.059-.342a.726.726 0 0 0-.431-.429.986.986 0 0 0-.349-.059.924.924 0 0 0-.373.075.88.88 0 0 0-.485.521c-.044.12-.116.252-.116.394v2.683h-.825V.057zm1.893 20.939c-3.825 0-6.224-2.658-6.224-6.9 0-4.242 2.399-6.909 6.224-6.909s6.215 2.667 6.215 6.909c0 4.241-2.39 6.9-6.215 6.9zm7.082-16.575a1.741 1.741 0 0 1-.433.054c-.218 0-.417-.031-.598-.093a1.379 1.379 0 0 1-.467-.262 1.175 1.175 0 0 1-.304-.409 1.271 1.271 0 0 1-.109-.534c0-.384.143-.684.429-.9.286-.216.7-.342 1.243-.377l1.18-.068v-.338c0-.252-.08-.445-.24-.576-.16-.131-.386-.197-.679-.197a1.21 1.21 0 0 0-.331.044.91.91 0 0 0-.27.127.726.726 0 0 0-.298.454h-.818c.005-.193.053-.372.143-.536a1.38 1.38 0 0 1 .367-.427c.155-.121.336-.215.546-.282.21-.067.438-.101.685-.101.266 0 .507.033.723.101.216.068.401.163.554.288.153.125.271.275.354.451.083.176.125.373.125.59v3.001h-.833v-.729h-.021c-.062.118-.14.225-.235.32a1.51 1.51 0 0 1-.713.399zm5.503 16.575c-2.917 0-4.9-1.528-5.038-3.927h1.899c.148 1.371 1.473 2.279 3.288 2.279 1.741 0 2.992-.908 2.992-2.149 0-1.074-.76-1.723-2.519-2.167l-1.714-.426c-2.464-.611-3.584-1.732-3.584-3.575 0-2.269 1.982-3.844 4.807-3.844 2.76 0 4.686 1.584 4.76 3.862h-1.88c-.13-1.371-1.25-2.214-2.918-2.214-1.658 0-2.806.852-2.806 2.084 0 .972.722 1.547 2.482 1.991l1.445.361c2.751.667 3.881 1.751 3.881 3.696-.001 2.482-1.964 4.029-5.095 4.029zM6.224 8.89c-2.621 0-4.26 2.01-4.26 5.205 0 3.186 1.639 5.196 4.26 5.196 2.612 0 4.26-2.01 4.26-5.196.001-3.195-1.648-5.205-4.26-5.205z" fill="#FFF"/></symbol><symbol viewBox="0 0 22 22" id="i-web" xmlns="http://www.w3.org/2000/svg"><path d="M20.58 16.402a10.987 10.987 0 0 0 0-10.804.802.802 0 0 0-.11-.189A10.998 10.998 0 0 0 11 0C7.11 0 3.509 2.057 1.53 5.409a.802.802 0 0 0-.11.19 10.987 10.987 0 0 0 0 10.803.802.802 0 0 0 .11.189A10.998 10.998 0 0 0 11 22c3.89 0 7.491-2.057 9.47-5.409a.802.802 0 0 0 .11-.19zm-1.058-.93h-3.48c.61-2.95.61-5.994 0-8.945h3.48a9.617 9.617 0 0 1 0 8.946zM11 20.635c-1.169 0-2.406-1.425-3.231-3.785h6.462c-.825 2.36-2.062 3.785-3.231 3.785zm-3.63-5.161A19.538 19.538 0 0 1 6.875 11a19.538 19.538 0 0 1 .495-4.473h7.26c.337 1.467.503 2.968.495 4.473a19.538 19.538 0 0 1-.495 4.473H7.37zM11 1.366c1.169 0 2.406 1.425 3.231 3.785H7.77c.824-2.36 2.06-3.785 3.23-3.785zm7.642 3.785h-2.96a11.014 11.014 0 0 0-1.554-3.258 9.653 9.653 0 0 1 4.514 3.258zM7.872 1.893A11.014 11.014 0 0 0 6.318 5.15h-2.96a9.653 9.653 0 0 1 4.514-3.258zM2.478 6.527h3.48c-.61 2.95-.61 5.995 0 8.946h-3.48a9.617 9.617 0 0 1 0-8.946zm.88 10.322h2.96c.335 1.164.86 2.265 1.554 3.258a9.653 9.653 0 0 1-4.514-3.258zm10.77 3.258a11.014 11.014 0 0 0 1.554-3.258h2.96a9.653 9.653 0 0 1-4.514 3.258z" fill="#F40830"/></symbol><symbol viewBox="0 0 20 21" id="i-windows" xmlns="http://www.w3.org/2000/svg"><path d="M0 2.98l8.481-1.127.004 7.982-8.477.047L0 2.98zm8.478 8.191l.007 7.976L0 18.012v-6.894l8.478.053zm.613-9.542L20 0v9.794l-10.91.088V1.63zM20 11.136L19.997 21l-10.89-1.593-.016-8.29 10.909.02z" fill="#FFF"/></symbol></svg>